<svg width="0" height="0" class="hidden">
  <symbol viewBox="0 0 24 24" xmlns="http://www.w3.org/2000/svg" id="menu">
    <path d="M4 5h16a1 1 0 0 1 0 2H4a1 1 0 1 1 0-2zm0 6h16a1 1 0 0 1 0 2H4a1 1 0 0 1 0-2zm0 6h16a1 1 0 0 1 0 2H4a1 1 0 0 1 0-2z"></path>
  </symbol>

   <symbol viewBox="0 0 1792 1792" xmlns="http://www.w3.org/2000/svg" id="check">
    <path d="M1472 930v318q0 119-84.5 203.5T1184 1536H352q-119 0-203.5-84.5T64 1248V416q0-119 84.5-203.5T352 128h832q63 0 117 25 15 7 18 23 3 17-9 29l-49 49q-10 10-23 10-3 0-9-2-23-6-45-6H352q-66 0-113 47t-47 113v832q0 66 47 113t113 47h832q66 0 113-47t47-113V994q0-13 9-22l64-64q10-10 23-10 6 0 12 3 20 8 20 29zm231-489l-814 814q-24 24-57 24t-57-24L345 825q-24-24-24-57t24-57l110-110q24-24 57-24t57 24l263 263 647-647q24-24 57-24t57 24l110 110q24 24 24 57t-24 57z"></path>
  </symbol>

  <symbol viewBox="0 0.009 141.732 141.732" xmlns="http://www.w3.org/2000/svg" id="food">
    <path d="M55.77 82.299H36.078v9.861h1.693v49.582h16.433V92.156h1.566v-9.857zm3.804-36.828c0-.048-.005-.086-.005-.134h.005V2.735A2.726 2.726 0 0 0 56.85.009a2.726 2.726 0 0 0-2.724 2.726v33.249a2.724 2.724 0 0 1-5.396-.538V2.735C48.727 1.229 47.494.008 45.974.008s-2.752 1.22-2.752 2.726V35.44a2.724 2.724 0 1 1-5.448 0V2.751h-.011c.002-.038.009-.071.009-.109 0-1.456-1.223-2.634-2.729-2.634-1.505 0-2.726 1.178-2.726 2.632 0 .038.004.071.006.109h-.006v42.585h.004c0 .05-.004.089-.004.137 0 10.657 3.541 19.768 8.547 23.52v12.851h10.12V69.02c5.031-3.73 8.59-12.86 8.59-23.549m38.158 55.385V.009C88.282 2.782 81.38 11.524 81.38 21.883l.003.064h-.003v78.91h-2.262v10.904h2.262v29.979h16.352v-29.983h2.125v-10.901h-2.125z"></path>
  </symbol>

  <symbol viewBox="0 0 1792 1792" xmlns="http://www.w3.org/2000/svg" id="file-text">
    <path d="M1596 380q28 28 48 76t20 88v1152q0 40-28 68t-68 28H224q-40 0-68-28t-28-68V96q0-40 28-68t68-28h896q40 0 88 20t76 48zm-444-244v376h376q-10-29-22-41l-313-313q-12-12-41-22zm384 1528V640h-416q-40 0-68-28t-28-68V128H256v1536h1280zM512 800q0-14 9-23t23-9h704q14 0 23 9t9 23v64q0 14-9 23t-23 9H544q-14 0-23-9t-9-23v-64zm736 224q14 0 23 9t9 23v64q0 14-9 23t-23 9H544q-14 0-23-9t-9-23v-64q0-14 9-23t23-9h704zm0 256q14 0 23 9t9 23v64q0 14-9 23t-23 9H544q-14 0-23-9t-9-23v-64q0-14 9-23t23-9h704z"></path>
  </symbol>

  <symbol viewBox="0 0 500 500" xmlns="http://www.w3.org/2000/svg" id="iconfinder_100_111046">
    <path clip-rule="evenodd" d="M31.949 431.711c0 20.078 16.264 36.34 36.34 36.34H431.71c20.078 0 36.34-16.262 36.34-36.34V159.145c0-20.078-16.262-36.342-36.34-36.342h-72.685V68.29c0-20.077-16.263-36.34-36.342-36.34H177.317c-20.079 0-36.342 16.264-36.342 36.34v54.513H68.29c-20.077 0-36.34 16.264-36.34 36.342v272.566zm281.65-308.909H186.401V97.367a19.935 19.935 0 0 1 19.991-19.991h87.215a19.936 19.936 0 0 1 19.991 19.991v25.435zM160.963 250h43.61v-43.608a19.933 19.933 0 0 1 19.989-19.991h50.877a19.936 19.936 0 0 1 19.987 19.991V250h43.607a19.936 19.936 0 0 1 19.992 19.991v50.875a19.934 19.934 0 0 1-19.992 19.986h-43.607v43.613a19.933 19.933 0 0 1-19.987 19.986h-50.877a19.931 19.931 0 0 1-19.989-19.986v-43.613h-43.61a19.93 19.93 0 0 1-19.989-19.986v-50.875A19.934 19.934 0 0 1 160.963 250z"
      fill-rule="evenodd"></path>
  </symbol>

  <symbol viewBox="0 0 16 16" xmlns="http://www.w3.org/2000/svg" id="iconfinder_home_126572">
    <path d="M15.45 7L14 5.551V2c0-.55-.45-1-1-1h-1c-.55 0-1 .45-1 1v.553L9 .555C8.727.297 8.477 0 8 0s-.727.297-1 .555L.55 7C.238 7.325 0 7.562 0 8c0 .563.432 1 1 1h1v6c0 .55.45 1 1 1h3v-5c0-.55.45-1 1-1h2c.55 0 1 .45 1 1v5h3c.55 0 1-.45 1-1V9h1c.568 0 1-.437 1-1 0-.438-.238-.675-.55-1z"></path>
  </symbol>

  <symbol viewBox="0 0 48 48" xmlns="http://www.w3.org/2000/svg" id="iconfinder_payment-gateway_3018571">
    <path d="M20.596 18.988c1.148 0 2.512.362 4.093 1.086l1.398-3.525c-1.41-.628-2.801-1.005-4.17-1.146v-2.569h-3.69v2.799c-.837.217-1.563.547-2.163 1.009-1.133.87-1.699 2.084-1.699 3.641 0 .833.131 1.554.396 2.162a4.486 4.486 0 0 0 1.226 1.619c.551.471 1.381.955 2.483 1.457 1.216.548 1.964.909 2.245 1.087.282.178.486.353.614.525.126.173.192.376.192.608 0 .369-.158.67-.473.906-.318.236-.813.353-1.493.353-.786 0-1.648-.127-2.587-.377-.942-.25-1.847-.6-2.719-1.046v4.069c.825.393 1.619.668 2.381.826.461.094 1.007.152 1.597.189v2.504h3.69v-2.764a7.4 7.4 0 0 0 1.073-.369c1-.449 1.768-1.084 2.298-1.896.535-.811.799-1.742.799-2.791 0-1.141-.284-2.086-.852-2.837-.566-.751-1.576-1.455-3.032-2.11-1.519-.694-2.452-1.171-2.794-1.434-.342-.262-.512-.559-.512-.891 0-.308.133-.566.406-.774.269-.207.698-.311 1.293-.311z"></path>
    <path d="M46.683 17.786h-2.487V2.872H.075v42.257h44.122V30.215h3.728V17.786h-1.242zm-7.458 22.37H5.046V7.843h34.178v9.943h-1.553a6.214 6.214 0 1 0 0 12.429c.053 0 .103-.012.155-.012v.012h1.397v9.941zm5.075-13.67h-6.628v-.016a2.48 2.48 0 0 1-2.331-2.471 2.48 2.48 0 0 1 2.331-2.47v-.016H44.3v4.973z"></path>
  </symbol>

  <symbol viewBox="0 0 32 32" xmlns="http://www.w3.org/2000/svg" id="iconfinder_forward_arrow_next_right_direction_4593180">
    <title></title>
    <path d="M29.58 15.19l-14-10A1 1 0 0 0 14 6v6.63L3.58 5.19A1 1 0 0 0 2 6v20a1 1 0 0 0 .54.89A1.07 1.07 0 0 0 3 27a1 1 0 0 0 .58-.19L14 19.37V26a1 1 0 0 0 .54.89A1.07 1.07 0 0 0 15 27a1 1 0 0 0 .58-.19l14-10a1 1 0 0 0 0-1.62z"></path>
  </symbol>




</svg>